<svg width="20" height="16" viewBox="0 0 20 16" fill="none" xmlns="http://www.w3.org/2000/svg">
    <path
        d="M5.99998 0C5.14974 0 4.44446 0.725434 4.44446 1.59997V2.74284H1.55552C0.70528 2.74284 0 3.46827 0 4.34281V14.4C0 15.2746 0.70528 16 1.55552 16H18.4445C19.2947 16 20 15.2746 20 14.4V4.34281C20 3.46827 19.2947 2.74284 18.4445 2.74284H15.5555V1.59997C15.5555 0.725434 14.8503 0 14 0H5.99998ZM5.99998 1.37152H14C14.1346 1.37152 14.2221 1.4616 14.2221 1.6V3.42863C14.2223 3.61055 14.2925 3.78482 14.4175 3.91349C14.5426 4.04215 14.7121 4.11438 14.8889 4.11438H18.4445C18.5791 4.11438 18.6666 4.20446 18.6666 4.34286V14.4001C18.6666 14.5385 18.5791 14.6286 18.4445 14.6286H1.55555C1.421 14.6286 1.33341 14.5385 1.33341 14.4001V4.34286C1.33341 4.20447 1.42099 4.11438 1.55555 4.11438H5.1112C5.28791 4.11438 5.45749 4.04216 5.58259 3.91349C5.70752 3.78482 5.77775 3.61055 5.7779 3.42863V1.6C5.7779 1.46161 5.86548 1.37152 6.00003 1.37152H5.99998ZM10 4.80012C7.67019 4.80012 5.76387 6.75119 5.76387 9.14301C5.76387 11.5348 7.67019 13.4859 10 13.4859C12.3298 13.4859 14.2361 11.5348 14.2361 9.14301C14.2361 6.75119 12.3298 4.80012 10 4.80012ZM10 6.17148C11.612 6.17148 12.9027 7.49516 12.9027 9.14297C12.9027 10.7908 11.612 12.1145 10 12.1145C8.38805 12.1145 7.09729 10.7908 7.09729 9.14297C7.09729 7.49516 8.38805 6.17148 10 6.17148Z"
        fill="#00275F" />
</svg>
