<svg width="15" height="16" viewBox="0 0 15 16" fill="none" xmlns="http://www.w3.org/2000/svg">
    <path
        d="M0.888996 1.77339V14.2265C0.888996 14.7155 1.28454 15.111 1.77262 15.111H12.4501C12.9371 15.111 13.3337 14.7144 13.3337 14.2265L13.3335 1.77339C13.3335 1.28439 12.938 0.888847 12.4499 0.888847H1.77286C1.2858 0.888847 0.889228 1.28542 0.889228 1.77339H0.888996ZM0.000148811 1.77339C0.000148811 0.793913 0.795243 0 1.77262 0H12.4501C13.4289 0 14.2225 0.793455 14.2225 1.77339V14.2265C14.2225 15.2059 13.4274 15.9999 12.4501 15.9999L1.77262 16C0.793757 16 0.000148811 15.2065 0.000148811 14.2266L0 1.77316L0.000148811 1.77339ZM0.888996 3.55554H13.3337V4.44439L0.888996 4.44453V3.55554ZM1.77784 1.77785H2.66669V2.66669H1.77784V1.77785ZM3.55569 1.77785H4.44454V2.66669H3.55569V1.77785ZM5.33353 1.77785H6.22238V2.66669H5.33353V1.77785Z"
        fill="#0076F6" />
</svg>
