<svg width="16" height="17" viewBox="0 0 16 17" fill="none" xmlns="http://www.w3.org/2000/svg">
    <path
        d="M15.394 2.45168L13.5492 0.606912C13.1579 0.21542 12.6378 0 12.0841 0C11.5308 0 11.0105 0.215436 10.6194 0.606912L1.01087 10.2151C0.358967 10.8675 0 11.7348 0 12.6567V15.3106C0 15.692 0.309147 16.0011 0.690517 16.0011H3.34443C4.26703 16.0011 5.13408 15.6415 5.78587 14.9894L15.3944 5.38127C16.2019 4.5734 16.2019 3.25943 15.3943 2.45168H15.394ZM4.80867 14.0133C4.41765 14.4048 3.89743 14.6202 3.34403 14.6202H1.38079V12.657C1.38079 12.1036 1.59623 11.5834 1.98727 11.1918L9.66711 3.5124L12.4885 6.3338L4.80867 14.0133ZM14.4172 4.40511L13.465 5.35732L10.6436 2.53548L11.5958 1.58327C11.8564 1.32191 12.3111 1.32191 12.5723 1.58327L14.4171 3.42804C14.6862 3.69764 14.6862 4.13553 14.4172 4.40515L14.4172 4.40511Z"
        fill="#0076F6" />
</svg>
