<svg width="16" height="16" viewBox="0 0 16 16" fill="none" xmlns="http://www.w3.org/2000/svg">
    <path
        d="M8 0C3.58743 0 0 3.5875 0 8C0 12.4125 3.5875 16 8 16C12.4125 16 16 12.4125 16 8C16 3.5875 12.4125 0 8 0ZM1.50819 8C1.50819 6.23749 2.21234 4.63749 3.35817 3.46667L11.4706 13.4834C10.4664 14.1209 9.27471 14.4918 7.99973 14.4918C4.42057 14.4918 1.50792 11.5793 1.50792 7.99996L1.50819 8ZM12.6415 12.5333L4.52914 2.51657C5.5333 1.87909 6.72499 1.50823 7.99996 1.50823C11.5791 1.50823 14.4918 4.42072 14.4918 8.00004C14.4918 9.76255 13.7834 11.3626 12.6418 12.5334L12.6415 12.5333Z"
        fill="#EB5757" />
</svg>
