<svg width="16" height="16" viewBox="0 0 16 16" fill="none" xmlns="http://www.w3.org/2000/svg">
    <path fill-rule="evenodd" clip-rule="evenodd"
        d="M3.33333 2.66668C3.15652 2.66668 2.98695 2.73691 2.86193 2.86194C2.7369 2.98696 2.66667 3.15653 2.66667 3.33334V12.6667C2.66667 12.8435 2.7369 13.0131 2.86193 13.1381C2.98695 13.2631 3.15652 13.3333 3.33333 13.3333H6C6.36819 13.3333 6.66667 13.6318 6.66667 14C6.66667 14.3682 6.36819 14.6667 6 14.6667H3.33333C2.8029 14.6667 2.29419 14.456 1.91912 14.0809C1.54405 13.7058 1.33333 13.1971 1.33333 12.6667V3.33334C1.33333 2.80291 1.54405 2.2942 1.91912 1.91913C2.29419 1.54406 2.8029 1.33334 3.33333 1.33334H6C6.36819 1.33334 6.66667 1.63182 6.66667 2.00001C6.66667 2.3682 6.36819 2.66668 6 2.66668H3.33333Z"
        fill="#EB5757" />
    <path fill-rule="evenodd" clip-rule="evenodd"
        d="M10.1953 4.19526C10.4556 3.93491 10.8777 3.93491 11.1381 4.19526L14.4714 7.5286C14.7318 7.78894 14.7318 8.21106 14.4714 8.4714L11.1381 11.8047C10.8777 12.0651 10.4556 12.0651 10.1953 11.8047C9.93491 11.5444 9.93491 11.1223 10.1953 10.8619L13.0572 8L10.1953 5.13807C9.93491 4.87772 9.93491 4.45561 10.1953 4.19526Z"
        fill="#EB5757" />
    <path fill-rule="evenodd" clip-rule="evenodd"
        d="M5.33333 8.00001C5.33333 7.63182 5.63181 7.33334 6 7.33334H14C14.3682 7.33334 14.6667 7.63182 14.6667 8.00001C14.6667 8.3682 14.3682 8.66668 14 8.66668H6C5.63181 8.66668 5.33333 8.3682 5.33333 8.00001Z"
        fill="#EB5757" />
</svg>
