<svg width="12" height="16" viewBox="0 0 12 16" fill="none" xmlns="http://www.w3.org/2000/svg">
    <path
        d="M11.247 9.35978C10.9275 8.71785 10.6259 8.11154 10.6259 5.95466C10.6259 3.59222 8.81827 1.64097 6.50354 1.39074L6.50366 0.500001C6.50366 0.223919 6.27815 0 5.99985 0C5.72154 0 5.49604 0.223919 5.49604 0.500001V1.39074C3.1814 1.64062 1.37401 3.59198 1.37401 5.95466C1.37401 8.0719 1.07096 8.70068 0.750159 9.3661C0.381292 10.1314 0 10.9226 0 13.4545C0 13.7306 0.225508 13.9545 0.503813 13.9545H4.12218V14.1364C4.12218 15.164 4.96443 16 6 16C7.03557 16 7.87782 15.164 7.87782 14.1364V13.9545H11.4962C11.7745 13.9545 12 13.7306 12 13.4545C12 10.8729 11.6172 10.1035 11.247 9.35948L11.247 9.35978ZM6.87011 14.1366C6.87011 14.6128 6.47982 15.0002 5.99991 15.0002C5.52001 15.0002 5.12972 14.6128 5.12972 14.1366V13.9548H6.87011V14.1366ZM1.01284 12.9548C1.05581 11.0492 1.3495 10.44 1.65906 9.79777C2.01432 9.06092 2.38152 8.29881 2.38152 5.95475C2.38152 3.97471 4.0046 2.36376 5.99988 2.36376C7.99516 2.36376 9.61825 3.97465 9.61825 5.95475C9.61825 8.34513 9.98699 9.08588 10.3434 9.80258C10.6522 10.423 10.9448 11.0112 10.987 12.9548H1.01284Z"
        fill="#0076F6" />
</svg>
