<svg width="16" height="16" viewBox="0 0 16 16" fill="none" xmlns="http://www.w3.org/2000/svg">
    <path fill-rule="evenodd" clip-rule="evenodd"
        d="M6.59928 2.57633C6.95283 2.4854 7.19997 2.16665 7.19997 1.80155V0.800029H8.79987V1.80155C8.79987 2.16662 9.04696 2.48537 9.40055 2.57633C9.91724 2.70932 10.3829 2.90138 10.8253 3.16279C11.1412 3.34935 11.5435 3.29725 11.8015 3.03623C11.9553 2.88047 12.2302 2.60591 12.5157 2.32226C12.8713 2.67571 13.2983 3.10414 13.6532 3.46078L13.6533 3.46092V3.46132C13.6533 3.46226 13.6531 3.46293 13.6531 3.46293V3.46306L13.6521 3.46413C13.4084 3.70882 13.1574 3.9633 12.9354 4.19551C12.6877 4.45466 12.6426 4.84694 12.8249 5.15551C13.0883 5.60108 13.2915 6.08605 13.4237 6.59938C13.5146 6.95283 13.8333 7.19992 14.1983 7.19992H15.2V8.79996H14.1983C13.8333 8.79996 13.5146 9.04706 13.4237 9.40051C13.2913 9.91438 13.0879 10.3999 12.8241 10.846C12.6358 11.1642 12.6903 11.57 12.9556 11.8274C13.1387 12.005 13.3871 12.2512 13.6637 12.5275C13.3074 12.8872 12.8761 13.3211 12.5231 13.671C12.3866 13.5327 12.2428 13.3854 12.1161 13.2557L12.116 13.2555C11.9916 13.1282 11.8837 13.0177 11.8156 12.9495C11.5575 12.691 11.1572 12.6403 10.8427 12.826C10.3976 13.0888 9.91327 13.2917 9.4006 13.4236C9.04704 13.5145 8.79991 13.8333 8.79991 14.1984V15.1999H7.20001V14.1984C7.20001 13.8333 6.95292 13.5146 6.59933 13.4236C6.08035 13.2901 5.5903 13.0838 5.14058 12.8161C4.82866 12.6305 4.43076 12.6782 4.17146 12.9322C4.04302 13.058 3.84588 13.2571 3.63616 13.4689L3.45777 13.6489C3.10353 13.3 2.6704 12.8686 2.32086 12.5176C2.52269 12.3165 2.73174 12.1102 2.89192 11.9521L3.04326 11.8027C3.30362 11.5451 3.35585 11.1437 3.17022 10.8281C2.90772 10.3822 2.70682 9.9077 2.5764 9.40051C2.48533 9.04706 2.16658 8.79996 1.80161 8.79996H0.799956V7.19992H1.80161C2.16658 7.19992 2.4853 6.95283 2.5764 6.59938C2.70885 6.08468 2.91269 5.59855 3.17708 5.15187C3.36284 4.83808 3.31288 4.43832 3.05561 4.17995C2.77583 3.89897 2.55579 3.68212 2.36989 3.49893L2.34244 3.47188C2.69373 3.11671 3.12055 2.68691 3.47133 2.33685C3.74119 2.60632 4.02044 2.88474 4.1904 3.05298C4.44928 3.30905 4.84837 3.3582 5.1615 3.17231C5.60828 2.90713 6.08104 2.70973 6.59937 2.57632L6.59928 2.57633ZM9.59996 0.799926V1.80158C10.1872 1.95279 10.7229 2.1731 11.2323 2.47402C11.3906 2.31371 11.6722 2.03246 11.9614 1.74532C12.2685 1.44036 12.7611 1.43822 13.068 1.74331C13.4276 2.10063 13.8614 2.53603 14.2201 2.89644C14.5319 3.20943 14.5307 3.71542 14.219 4.02855C13.9765 4.27216 13.73 4.52209 13.5136 4.74841C13.8145 5.25786 14.0471 5.8126 14.1983 6.40001H15.1998C15.6416 6.40001 15.9999 6.75813 15.9999 7.19996V8.8C15.9999 9.24184 15.6416 9.59996 15.1998 9.59996H14.1983C14.0469 10.188 13.8142 10.7433 13.5127 11.2533C13.7006 11.4356 13.9533 11.6862 14.2315 11.9641C14.5418 12.2741 14.5427 12.7766 14.2342 13.0882C13.8672 13.4588 13.4184 13.9104 13.0565 14.2686C12.7568 14.5652 12.2815 14.564 11.9847 14.2641C11.8271 14.105 11.6729 13.947 11.5403 13.8112C11.4215 13.6894 11.3203 13.5857 11.2496 13.5148C10.7406 13.8153 10.1866 14.0474 9.59997 14.1984V15.1999C9.59997 15.6418 9.24172 16 8.79988 16H7.19998C6.75814 16 6.39989 15.6418 6.39989 15.1999V14.1984C5.80606 14.0455 5.24542 13.8095 4.73141 13.5036C4.60766 13.6248 4.41722 13.8171 4.20897 14.0275L4.2087 14.0277L4.00888 14.2294C3.70674 14.534 3.22073 14.538 2.91497 14.2371C2.54828 13.8762 2.09424 13.4239 1.73359 13.0615C1.43198 12.7584 1.43105 12.2748 1.73412 11.9729C1.94399 11.7637 2.16496 11.5457 2.33104 11.3816L2.3313 11.3813L2.48077 11.2339C2.18251 10.7271 1.95174 10.1836 1.80161 9.59997H0.800089C0.35825 9.59997 0 9.24185 0 8.80001V7.19997C0 6.75813 0.35825 6.40002 0.800089 6.40002H1.80161C1.95321 5.81113 2.18653 5.25495 2.48865 4.74454C2.21156 4.46624 1.99405 4.25182 1.80815 4.0686L1.76503 4.02601C1.45646 3.72186 1.45739 3.22901 1.76208 2.92099C2.11982 2.55938 2.55881 2.1173 2.9172 1.75956C3.22537 1.45206 3.72116 1.45568 4.02922 1.76345C4.30149 2.03532 4.583 2.31616 4.75309 2.48437C5.26535 2.18035 5.80857 1.95387 6.39986 1.80161V0.799952C6.39986 0.358113 6.75811 0 7.19995 0H8.79985C9.24169 0 9.59994 0.358113 9.59994 0.799952L9.59996 0.799926ZM10.3869 7.98687C10.3869 9.31222 9.3124 10.3869 7.98692 10.3869C6.66144 10.3869 5.58693 9.31222 5.58693 7.98687C5.58693 6.66126 6.66144 5.58674 7.98692 5.58674C9.3124 5.58674 10.3869 6.66126 10.3869 7.98687ZM11.1869 7.98687C11.1869 9.75406 9.75424 11.1868 7.98692 11.1868C6.2196 11.1868 4.78698 9.75406 4.78698 7.98687C4.78698 6.21955 6.2196 4.78679 7.98692 4.78679C9.75424 4.78679 11.1869 6.21955 11.1869 7.98687Z"
        fill="#0076F6" />
</svg>
