<svg width="20" height="16" viewBox="0 0 20 16" fill="none" xmlns="http://www.w3.org/2000/svg">
    <path
        d="M18.3017 0.00189791C18.2164 0.0116887 18.1352 0.0504674 18.0674 0.113625L15.2196 2.65076C13.5968 1.61448 11.823 1.04257 10.0001 1.04257C6.16487 1.04257 2.54985 3.55435 0.0861936 7.66492C-0.0287312 7.85728 -0.0287312 8.1174 0.0861936 8.30996C1.1695 10.1172 2.4719 11.6188 3.92108 12.7305L1.4 14.9753C1.28951 15.054 1.21168 15.1857 1.18568 15.3378C1.15969 15.4898 1.1879 15.648 1.26336 15.7735C1.33881 15.8991 1.45453 15.9801 1.58198 15.9968C1.70943 16.0135 1.83688 15.9642 1.93262 15.8611L4.78042 13.3239C6.40507 14.3627 8.17541 14.9323 9.99992 14.9323C13.8351 14.9323 17.4501 12.4204 19.9138 8.30998C20.0287 8.11743 20.0287 7.85731 19.9138 7.66495C19.5827 7.11245 19.2328 6.59181 18.8627 6.09957C18.694 5.874 18.4063 5.85653 18.22 6.06079C18.0338 6.26505 18.0194 6.61367 18.188 6.83925C18.4602 7.20112 18.7116 7.59373 18.9622 7.99166C16.6529 11.657 13.4039 13.8311 9.99996 13.8311C8.47944 13.8311 6.99272 13.3994 5.60425 12.5927L7.22334 11.1479C7.92669 12.0091 8.91077 12.5497 10.0001 12.5497C12.1287 12.5497 13.8634 10.5002 13.8634 7.99147C13.8634 7.15447 13.6673 6.37006 13.3307 5.69505L15.2837 3.94925C15.7628 4.29193 16.2291 4.67838 16.6757 5.11031C16.7682 5.21744 16.8938 5.27253 17.0214 5.26178C17.1492 5.25084 17.2673 5.17539 17.3465 5.05368C17.4259 4.93216 17.4592 4.77551 17.4383 4.6227C17.4174 4.46969 17.3441 4.33454 17.2367 4.25027C16.861 3.88686 16.4713 3.55879 16.072 3.25257L18.6002 0.999346C18.7669 0.85594 18.8339 0.595626 18.7645 0.363158C18.6949 0.130484 18.5056 -0.0175274 18.3019 0.00166882L18.3017 0.00189791ZM10.0001 2.14336C11.5218 2.14336 13.0116 2.57722 14.4031 3.38178L12.7768 4.83521C12.0735 3.97555 11.0899 3.43343 10.0001 3.43343C7.87147 3.43343 6.1368 5.48314 6.1368 7.99167C6.1368 8.82616 6.33479 9.60462 6.66943 10.2794L4.71648 12.0166C3.34529 11.0299 2.09204 9.66493 1.03775 7.99172C3.34736 4.32311 6.59447 2.14341 10 2.14341L10.0001 2.14336ZM10.0001 4.52579C10.7931 4.52579 11.5099 4.89361 12.0383 5.48894L7.40073 9.62581C7.1796 9.13819 7.05992 8.5853 7.05992 7.99172C7.05992 6.07003 8.36946 4.52584 9.99996 4.52584L10.0001 4.52579ZM12.5993 6.34898C12.8204 6.83564 12.9401 7.39814 12.9401 7.99172C12.9401 9.91341 11.6306 11.4576 10.0001 11.4576C9.20526 11.4576 8.49051 11.0854 7.96182 10.4859L12.5993 6.34898Z"
        fill="#0076F6" />
</svg>
